# xmcd CD database file
#
# Track frame offsets:
#	150
#	1628
#	18073
#	35835
#	52895
#	69738
#	93590
#	112422
#	127638
#	142910
#	160815
#	175877
#
# Disc length: 2551 seconds
#
# Revision: 0
# Processed by: cddbd v1.5.2PL0 Copyright (c) Steve Scherf et al.
# Submitted via: CDex 1.51
#
DISCID=9209f50c
DTITLE=Soulidium - Children of Chaos
DYEAR=2007
DGENRE=Salsa
TTITLE0=Soulidification Sequence
TTITLE1=Trapped
TTITLE2=The Light
TTITLE3=Live Forever
TTITLE4=Drama
TTITLE5=About You
TTITLE6=Easy Kind of Girl
TTITLE7=Waiting
TTITLE8=Crucify
TTITLE9=Jaded Messiah
TTITLE10=Big Time
TTITLE11=Slowly We Die
EXTD=YEAR: 2007
EXTT0=
EXTT1=
EXTT2=
EXTT3=
EXTT4=
EXTT5=
EXTT6=
EXTT7=
EXTT8=
EXTT9=
EXTT10=
EXTT11=
PLAYORDER=
